<?xml version="1.0" encoding="UTF-8" standalone="no"?>
<!DOCTYPE svg PUBLIC "-//W3C//DTD SVG 1.1//EN" "http://www.w3.org/Graphics/SVG/1.1/DTD/svg11.dtd">
<svg width="100%" height="100%" viewBox="0 0 128 128" version="1.1" xmlns="http://www.w3.org/2000/svg" xmlns:xlink="http://www.w3.org/1999/xlink" xml:space="preserve" xmlns:serif="http://www.serif.com/" style="fill-rule:evenodd;clip-rule:evenodd;stroke-linejoin:round;stroke-miterlimit:2;">
    <g transform="matrix(1,0,0,1,-2538.19,-292.004)">
        <g id="favicon" transform="matrix(0.611991,0,0,0.688172,1444.31,838.413)">
            <rect x="1787.42" y="-794" width="209.153" height="186" style="fill:none;"/>
            <clipPath id="_clip1">
                <rect x="1787.42" y="-794" width="209.153" height="186"/>
            </clipPath>
            <g clip-path="url(#_clip1)">
                <g transform="matrix(1.63401,0,0,1.45312,-1132.55,-794)">
                    <path d="M1915,21.262L1915,106.738C1915,118.473 1905.47,128 1893.74,128L1808.26,128C1796.53,128 1787,118.473 1787,106.738L1787,21.262C1787,9.527 1796.53,0 1808.26,0L1893.74,0C1905.47,0 1915,9.527 1915,21.262Z" style="fill:none;"/>
                    <clipPath id="_clip2">
                        <path d="M1915,21.262L1915,106.738C1915,118.473 1905.47,128 1893.74,128L1808.26,128C1796.53,128 1787,118.473 1787,106.738L1787,21.262C1787,9.527 1796.53,0 1808.26,0L1893.74,0C1905.47,0 1915,9.527 1915,21.262Z"/>
                    </clipPath>
                    <g clip-path="url(#_clip2)">
                        <g transform="matrix(0.163028,0,0,0.163028,1650.83,-453.944)">
                            <path d="M1385.73,3458.94L1453.18,3384.6L1583.66,3528.39L896.657,3528.39L967.887,3451.17L1022.39,3510.27L1227.51,3285.76L1385.73,3458.94Z" style="fill:url(#_Linear3);"/>
                            <clipPath id="_clip4">
                                <path d="M1385.73,3458.94L1453.18,3384.6L1583.66,3528.39L896.657,3528.39L967.887,3451.17L1022.39,3510.27L1227.51,3285.76L1385.73,3458.94Z"/>
                            </clipPath>
                            <g clip-path="url(#_clip4)">
                                <g transform="matrix(0.691632,0,0,1.16404,378.427,-554.916)">
                                    <path d="M1227.82,3299.43L1549.34,3507.87L1227.82,3507.87L1227.82,3299.43Z" style="fill-opacity:0.16;"/>
                                </g>
                                <g transform="matrix(0.625002,0,0,1.1332,685.809,-446.741)">
                                    <path d="M1227.82,3299.43L1549.34,3507.87L1227.82,3507.87L1227.82,3299.43Z" style="fill-opacity:0.16;"/>
                                </g>
                                <g transform="matrix(0.223078,0,0,0.371383,693.809,2225.63)">
                                    <path d="M1227.82,3299.43L1549.34,3507.87L1227.82,3507.87L1227.82,3299.43Z" style="fill-opacity:0.16;"/>
                                </g>
                            </g>
                        </g>
                    </g>
                    <path d="M1915,21.262L1915,106.738C1915,118.473 1905.47,128 1893.74,128L1808.26,128C1796.53,128 1787,118.473 1787,106.738L1787,21.262C1787,9.527 1796.53,0 1808.26,0L1893.74,0C1905.47,0 1915,9.527 1915,21.262ZM1908,21.262C1908,13.391 1901.61,7 1893.74,7L1808.26,7C1800.39,7 1794,13.391 1794,21.262L1794,106.738C1794,114.609 1800.39,121 1808.26,121L1893.74,121C1901.61,121 1908,114.609 1908,106.738L1908,21.262Z" style="fill:url(#_Linear5);"/>
                </g>
            </g>
        </g>
    </g>
    <defs>
        <linearGradient id="_Linear3" x1="0" y1="0" x2="1" y2="0" gradientUnits="userSpaceOnUse" gradientTransform="matrix(516,0,0,182.244,987,3397.88)"><stop offset="0" style="stop-color:rgb(255,0,66);stop-opacity:1"/><stop offset="1" style="stop-color:rgb(255,0,126);stop-opacity:1"/></linearGradient>
        <linearGradient id="_Linear5" x1="0" y1="0" x2="1" y2="0" gradientUnits="userSpaceOnUse" gradientTransform="matrix(128,0,0,128,1787,64)"><stop offset="0" style="stop-color:rgb(255,0,66);stop-opacity:1"/><stop offset="1" style="stop-color:rgb(255,0,126);stop-opacity:1"/></linearGradient>
    </defs>
</svg>
