<?xml version="1.0" encoding="UTF-8" standalone="no"?>
<!DOCTYPE svg PUBLIC "-//W3C//DTD SVG 1.1//EN" "http://www.w3.org/Graphics/SVG/1.1/DTD/svg11.dtd">
<svg width="100%" height="100%" viewBox="0 0 43 42" version="1.1" xmlns="http://www.w3.org/2000/svg" xmlns:xlink="http://www.w3.org/1999/xlink" xml:space="preserve" xmlns:serif="http://www.serif.com/" style="fill-rule:evenodd;clip-rule:evenodd;stroke-linejoin:round;stroke-miterlimit:2;">
    <g transform="matrix(1,0,0,1,-1914,-1354)">
        <g transform="matrix(5.23529,0,0,2.83948,-8076.12,-256.072)">
            <g transform="matrix(0.191011,0,0,0.352177,1541.96,88.7739)">
                <path d="M1939,1358C1950.59,1358 1960,1367.41 1960,1379C1960,1390.59 1950.59,1400 1939,1400C1927.41,1400 1918,1390.59 1918,1379C1918,1367.41 1927.41,1358 1939,1358ZM1947.12,1364.78C1941.71,1364.75 1936.29,1364.75 1930.88,1364.78C1930.67,1364.79 1930.46,1364.8 1930.25,1364.82C1929.77,1364.88 1929.29,1364.99 1928.84,1365.16C1928.04,1365.45 1927.31,1365.9 1926.7,1366.49C1926,1367.16 1925.45,1367.99 1925.13,1368.91C1924.98,1369.34 1924.87,1369.8 1924.82,1370.25C1924.8,1370.46 1924.78,1370.67 1924.78,1370.88C1924.75,1376.29 1924.75,1381.71 1924.78,1387.12C1924.78,1387.33 1924.8,1387.54 1924.82,1387.75C1924.87,1388.2 1924.98,1388.66 1925.13,1389.09C1925.45,1390.01 1926,1390.84 1926.7,1391.51C1927.31,1392.1 1928.04,1392.55 1928.84,1392.84C1929.29,1393.01 1929.77,1393.12 1930.25,1393.18C1930.46,1393.2 1930.67,1393.22 1930.88,1393.22C1936.29,1393.25 1941.71,1393.25 1947.12,1393.22C1947.33,1393.22 1947.54,1393.2 1947.75,1393.18C1948.23,1393.12 1948.71,1393.01 1949.16,1392.84C1950.05,1392.52 1950.86,1391.99 1951.51,1391.3C1952.11,1390.67 1952.58,1389.91 1952.87,1389.09C1953.02,1388.66 1953.13,1388.2 1953.18,1387.75C1953.2,1387.54 1953.22,1387.33 1953.22,1387.12C1953.26,1381.71 1953.26,1376.29 1953.22,1370.88C1953.22,1370.67 1953.2,1370.46 1953.18,1370.25C1953.13,1369.8 1953.02,1369.34 1952.87,1368.91C1952.58,1368.09 1952.11,1367.33 1951.51,1366.7C1950.86,1366.01 1950.05,1365.48 1949.16,1365.16C1948.71,1364.99 1948.23,1364.88 1947.75,1364.82C1947.54,1364.8 1947.33,1364.79 1947.12,1364.78ZM1952,1373.44C1952.02,1377.99 1952.01,1382.55 1951.98,1387.1C1951.98,1387.27 1951.97,1387.44 1951.95,1387.61C1951.91,1387.97 1951.83,1388.33 1951.7,1388.68C1951.47,1389.34 1951.1,1389.94 1950.62,1390.45C1950.1,1391 1949.45,1391.42 1948.74,1391.68C1948.37,1391.82 1947.99,1391.91 1947.61,1391.95C1947.44,1391.97 1947.27,1391.98 1947.1,1391.98C1941.7,1392.02 1936.3,1392.02 1930.9,1391.98C1930.73,1391.98 1930.56,1391.97 1930.39,1391.95C1930.01,1391.91 1929.63,1391.82 1929.26,1391.68C1928.63,1391.45 1928.04,1391.09 1927.55,1390.62C1926.99,1390.08 1926.56,1389.41 1926.3,1388.68C1926.18,1388.35 1926.1,1388.01 1926.06,1387.67C1926.03,1387.48 1926.02,1387.29 1926.02,1387.1C1925.99,1382.55 1925.98,1377.99 1926,1373.44L1952,1373.44ZM1939,1381.47C1938.32,1381.47 1937.76,1382.03 1937.76,1382.71C1937.76,1383.39 1938.32,1383.95 1939,1383.95C1939.68,1383.95 1940.24,1383.39 1940.24,1382.71C1940.24,1382.03 1939.68,1381.47 1939,1381.47ZM1948.89,1386.42C1948.21,1386.42 1947.66,1386.97 1947.66,1387.66C1947.66,1388.34 1948.21,1388.89 1948.89,1388.89C1949.58,1388.89 1950.13,1388.34 1950.13,1387.66C1950.13,1386.97 1949.58,1386.42 1948.89,1386.42ZM1929.11,1381.47C1928.42,1381.47 1927.87,1382.03 1927.87,1382.71C1927.87,1383.39 1928.42,1383.95 1929.11,1383.95C1929.79,1383.95 1930.34,1383.39 1930.34,1382.71C1930.34,1382.03 1929.79,1381.47 1929.11,1381.47ZM1934.05,1386.42C1933.37,1386.42 1932.82,1386.97 1932.82,1387.66C1932.82,1388.34 1933.37,1388.89 1934.05,1388.89C1934.74,1388.89 1935.29,1388.34 1935.29,1387.66C1935.29,1386.97 1934.74,1386.42 1934.05,1386.42ZM1948.89,1376.53C1948.21,1376.53 1947.66,1377.08 1947.66,1377.76C1947.66,1378.45 1948.21,1379 1948.89,1379C1949.58,1379 1950.13,1378.45 1950.13,1377.76C1950.13,1377.08 1949.58,1376.53 1948.89,1376.53ZM1929.11,1376.53C1928.42,1376.53 1927.87,1377.08 1927.87,1377.76C1927.87,1378.45 1928.42,1379 1929.11,1379C1929.79,1379 1930.34,1378.45 1930.34,1377.76C1930.34,1377.08 1929.79,1376.53 1929.11,1376.53ZM1943.95,1376.53C1943.26,1376.53 1942.71,1377.08 1942.71,1377.76C1942.71,1378.45 1943.26,1379 1943.95,1379C1944.63,1379 1945.18,1378.45 1945.18,1377.76C1945.18,1377.08 1944.63,1376.53 1943.95,1376.53ZM1934.05,1376.53C1933.37,1376.53 1932.82,1377.08 1932.82,1377.76C1932.82,1378.45 1933.37,1379 1934.05,1379C1934.74,1379 1935.29,1378.45 1935.29,1377.76C1935.29,1377.08 1934.74,1376.53 1934.05,1376.53ZM1948.89,1381.47C1948.21,1381.47 1947.66,1382.03 1947.66,1382.71C1947.66,1383.39 1948.21,1383.95 1948.89,1383.95C1949.58,1383.95 1950.13,1383.39 1950.13,1382.71C1950.13,1382.03 1949.58,1381.47 1948.89,1381.47ZM1929.11,1386.42C1928.42,1386.42 1927.87,1386.97 1927.87,1387.66C1927.87,1388.34 1928.42,1388.89 1929.11,1388.89C1929.79,1388.89 1930.34,1388.34 1930.34,1387.66C1930.34,1386.97 1929.79,1386.42 1929.11,1386.42ZM1943.95,1380.24C1942.58,1380.24 1941.47,1381.35 1941.47,1382.71C1941.47,1384.08 1942.58,1385.18 1943.95,1385.18C1945.31,1385.18 1946.42,1384.08 1946.42,1382.71C1946.42,1381.35 1945.31,1380.24 1943.95,1380.24ZM1934.05,1381.47C1933.37,1381.47 1932.82,1382.03 1932.82,1382.71C1932.82,1383.39 1933.37,1383.95 1934.05,1383.95C1934.74,1383.95 1935.29,1383.39 1935.29,1382.71C1935.29,1382.03 1934.74,1381.47 1934.05,1381.47ZM1939,1386.42C1938.32,1386.42 1937.76,1386.97 1937.76,1387.66C1937.76,1388.34 1938.32,1388.89 1939,1388.89C1939.68,1388.89 1940.24,1388.34 1940.24,1387.66C1940.24,1386.97 1939.68,1386.42 1939,1386.42ZM1943.95,1386.42C1943.26,1386.42 1942.71,1386.97 1942.71,1387.66C1942.71,1388.34 1943.26,1388.89 1943.95,1388.89C1944.63,1388.89 1945.18,1388.34 1945.18,1387.66C1945.18,1386.97 1944.63,1386.42 1943.95,1386.42ZM1939,1376.53C1938.32,1376.53 1937.76,1377.08 1937.76,1377.76C1937.76,1378.45 1938.32,1379 1939,1379C1939.68,1379 1940.24,1378.45 1940.24,1377.76C1940.24,1377.08 1939.68,1376.53 1939,1376.53Z" style="fill:white;"/>
            </g>
        </g>
    </g>
</svg>
