<?xml version="1.0" encoding="UTF-8" standalone="no"?>
<!DOCTYPE svg PUBLIC "-//W3C//DTD SVG 1.1//EN" "http://www.w3.org/Graphics/SVG/1.1/DTD/svg11.dtd">
<svg width="100%" height="100%" viewBox="0 0 44 44" version="1.1" xmlns="http://www.w3.org/2000/svg" xmlns:xlink="http://www.w3.org/1999/xlink" xml:space="preserve" xmlns:serif="http://www.serif.com/" style="fill-rule:evenodd;clip-rule:evenodd;stroke-linejoin:round;stroke-miterlimit:2;">
    <g transform="matrix(1,0,0,1,-2048,-606)">
        <g transform="matrix(5.17896,0,0,0.998254,-7968.64,55.5947)">
            <g id="salesforce" transform="matrix(0.198356,0,0,1.02907,1527.53,-72.2564)">
                <path d="M2071.19,606.191C2082.74,606.191 2092.12,615.569 2092.12,627.12C2092.12,638.671 2082.74,648.049 2071.19,648.049C2059.64,648.049 2050.26,638.671 2050.26,627.12C2050.26,615.569 2059.64,606.191 2071.19,606.191ZM2069.45,617.253C2068.26,615.674 2066.37,614.654 2064.24,614.654C2060.63,614.654 2057.69,617.61 2057.69,621.251C2057.69,622.182 2057.88,623.072 2058.23,623.876C2056.54,624.87 2055.41,626.724 2055.41,628.85C2055.41,632.022 2057.93,634.591 2061.04,634.591C2061.44,634.591 2061.83,634.547 2062.2,634.468C2063.06,636.807 2065.39,638.475 2067.89,638.475C2070.4,638.475 2072.55,636.937 2073.48,634.744C2074.18,635.09 2074.97,635.284 2075.8,635.284C2077.79,635.284 2079.53,634.174 2080.44,632.536C2080.91,632.633 2081.38,632.681 2081.88,632.681C2085.89,632.681 2089.15,629.368 2089.15,625.28C2089.15,621.192 2085.89,617.878 2081.88,617.878C2080.83,617.878 2079.83,618.105 2078.93,618.511C2077.9,616.653 2075.96,615.399 2073.73,615.399C2072.06,615.399 2070.54,616.11 2069.45,617.253Z" style="fill:white;"/>
            </g>
        </g>
    </g>
</svg>
