<?xml version="1.0" encoding="UTF-8" standalone="no"?>
<!DOCTYPE svg PUBLIC "-//W3C//DTD SVG 1.1//EN" "http://www.w3.org/Graphics/SVG/1.1/DTD/svg11.dtd">
<svg width="100%" height="100%" viewBox="0 0 43 43" version="1.1" xmlns="http://www.w3.org/2000/svg" xmlns:xlink="http://www.w3.org/1999/xlink" xml:space="preserve" xmlns:serif="http://www.serif.com/" style="fill-rule:evenodd;clip-rule:evenodd;stroke-linejoin:round;stroke-miterlimit:2;">
    <g transform="matrix(1,0,0,1,-2095,-606)">
        <g transform="matrix(5.17896,0,0,0.998254,-7968.64,55.5947)">
            <g transform="matrix(0.187962,0,0,0.965514,1549.87,-32.21)">
                <g id="LINKEDIN">
                    <path d="M2114.5,604.62C2126.37,604.62 2136,614.35 2136,626.335C2136,638.319 2126.37,648.049 2114.5,648.049C2102.63,648.049 2093,638.319 2093,626.335C2093,614.35 2102.63,604.62 2114.5,604.62ZM2123.14,611.685L2115.62,620.375L2109.11,611.685L2099.68,611.685L2110.95,626.559L2100.27,638.882L2104.84,638.882L2113.08,629.374L2120.28,638.882L2129.47,638.882L2117.73,623.205L2127.71,611.685L2123.14,611.685ZM2121.54,636.12L2105.02,614.301L2107.73,614.301L2124.07,636.12L2121.54,636.12Z" style="fill:white;"/>
                </g>
            </g>
        </g>
    </g>
</svg>
