<?xml version="1.0" encoding="UTF-8" standalone="no"?>
<!DOCTYPE svg PUBLIC "-//W3C//DTD SVG 1.1//EN" "http://www.w3.org/Graphics/SVG/1.1/DTD/svg11.dtd">
<svg width="100%" height="100%" viewBox="0 0 290 80" version="1.1" xmlns="http://www.w3.org/2000/svg" xmlns:xlink="http://www.w3.org/1999/xlink" xml:space="preserve" xmlns:serif="http://www.serif.com/" style="fill-rule:evenodd;clip-rule:evenodd;stroke-linejoin:round;stroke-miterlimit:2;">
    <g transform="matrix(1,0,0,1,-1957.62,0)">
        <g id="underconstruction_logo" transform="matrix(0.995763,0,0,0.612022,8.75899,19.3537)">
            <rect x="1957.15" y="-31.623" width="291.234" height="130.714" style="fill:none;"/>
            <g id="logo">
                <g transform="matrix(1.48964,3.84932e-17,0,2.42366,-1256.04,-701.951)">
                    <path d="M2171.18,284.745L2171.18,296.259C2171.18,297.565 2171.14,298.482 2171.06,299.01C2170.97,299.539 2170.72,300.081 2170.3,300.638C2169.88,301.195 2169.33,301.617 2168.65,301.905C2167.96,302.192 2167.16,302.336 2166.23,302.336C2165.2,302.336 2164.29,302.165 2163.5,301.825C2162.71,301.484 2162.12,301.041 2161.74,300.495C2161.35,299.948 2161.11,299.372 2161.04,298.765C2160.97,298.159 2160.94,296.883 2160.94,294.94L2160.94,284.745L2165.42,284.745L2165.42,297.664C2165.42,298.416 2165.46,298.897 2165.54,299.106C2165.62,299.315 2165.79,299.42 2166.03,299.42C2166.32,299.42 2166.5,299.304 2166.58,299.074C2166.66,298.843 2166.7,298.299 2166.7,297.44L2166.7,284.745L2171.18,284.745Z" style="fill-rule:nonzero;"/>
                    <path d="M2182.92,284.745L2182.92,301.974L2179,301.974L2176.66,294.141L2176.66,301.974L2172.92,301.974L2172.92,284.745L2176.66,284.745L2179.18,292.503L2179.18,284.745L2182.92,284.745Z" style="fill-rule:nonzero;"/>
                    <path d="M2184.72,284.745L2188.07,284.745C2190.24,284.745 2191.7,284.844 2192.46,285.043C2193.22,285.242 2193.8,285.568 2194.2,286.022C2194.6,286.476 2194.85,286.981 2194.95,287.538C2195.05,288.095 2195.1,289.19 2195.1,290.821L2195.1,296.855C2195.1,298.402 2195.02,299.436 2194.88,299.957C2194.73,300.479 2194.48,300.887 2194.12,301.181C2193.76,301.475 2193.31,301.681 2192.78,301.798C2192.24,301.915 2191.44,301.974 2190.37,301.974L2184.72,301.974L2184.72,284.745ZM2189.2,287.693L2189.2,299.026C2189.85,299.026 2190.24,298.897 2190.39,298.638C2190.54,298.379 2190.62,297.675 2190.62,296.525L2190.62,289.832C2190.62,289.051 2190.59,288.551 2190.54,288.331C2190.49,288.111 2190.38,287.95 2190.2,287.847C2190.02,287.744 2189.69,287.693 2189.2,287.693Z" style="fill-rule:nonzero;"/>
                    <path d="M2196.77,284.745L2204.24,284.745L2204.24,288.193L2201.25,288.193L2201.25,291.46L2204.05,291.46L2204.05,294.737L2201.25,294.737L2201.25,298.526L2204.54,298.526L2204.54,301.974L2196.77,301.974L2196.77,284.745Z" style="fill-rule:nonzero;"/>
                    <path d="M2205.82,284.745L2208.99,284.745C2211.11,284.745 2212.54,284.827 2213.29,284.99C2214.04,285.153 2214.65,285.57 2215.12,286.24C2215.59,286.91 2215.83,287.98 2215.83,289.449C2215.83,290.789 2215.66,291.69 2215.33,292.152C2214.99,292.613 2214.34,292.889 2213.36,292.982C2214.24,293.201 2214.84,293.496 2215.14,293.865C2215.45,294.234 2215.64,294.572 2215.72,294.881C2215.79,295.19 2215.83,296.039 2215.83,297.43L2215.83,301.974L2211.67,301.974L2211.67,296.249C2211.67,295.326 2211.59,294.755 2211.45,294.535C2211.3,294.315 2210.92,294.205 2210.3,294.205L2210.3,301.974L2205.82,301.974L2205.82,284.745ZM2210.3,287.693L2210.3,291.524C2210.81,291.524 2211.16,291.454 2211.36,291.316C2211.56,291.178 2211.67,290.729 2211.67,289.97L2211.67,289.023C2211.67,288.477 2211.57,288.118 2211.37,287.948C2211.18,287.778 2210.82,287.693 2210.3,287.693Z" style="fill-rule:nonzero;"/>
                    <path d="M2228.02,292.258L2223.54,292.258L2223.54,289.257C2223.54,288.384 2223.49,287.84 2223.4,287.623C2223.3,287.407 2223.09,287.299 2222.76,287.299C2222.4,287.299 2222.16,287.43 2222.06,287.693C2221.96,287.955 2221.91,288.523 2221.91,289.395L2221.91,297.398C2221.91,298.235 2221.96,298.781 2222.06,299.037C2222.16,299.292 2222.39,299.42 2222.73,299.42C2223.07,299.42 2223.28,299.292 2223.39,299.037C2223.49,298.781 2223.54,298.182 2223.54,297.238L2223.54,295.078L2228.02,295.078L2228.02,295.748C2228.02,297.529 2227.9,298.792 2227.64,299.537C2227.39,300.282 2226.84,300.934 2225.97,301.495C2225.11,302.055 2224.05,302.336 2222.79,302.336C2221.47,302.336 2220.39,302.098 2219.54,301.623C2218.69,301.147 2218.12,300.489 2217.85,299.649C2217.57,298.808 2217.43,297.543 2217.43,295.855L2217.43,290.821C2217.43,289.58 2217.48,288.649 2217.56,288.028C2217.65,287.407 2217.9,286.809 2218.32,286.235C2218.74,285.66 2219.33,285.208 2220.08,284.878C2220.83,284.548 2221.69,284.383 2222.66,284.383C2223.98,284.383 2225.07,284.638 2225.93,285.149C2226.78,285.66 2227.35,286.297 2227.62,287.059C2227.89,287.822 2228.02,289.009 2228.02,290.619L2228.02,292.258Z" style="fill-rule:nonzero;"/>
                    <path d="M2239.87,294.833C2239.87,296.564 2239.83,297.79 2239.74,298.51C2239.66,299.23 2239.41,299.888 2238.98,300.484C2238.55,301.08 2237.97,301.537 2237.24,301.857C2236.51,302.176 2235.66,302.336 2234.68,302.336C2233.76,302.336 2232.93,302.185 2232.2,301.883C2231.46,301.582 2230.87,301.13 2230.43,300.526C2229.98,299.923 2229.71,299.267 2229.63,298.558C2229.54,297.848 2229.5,296.607 2229.5,294.833L2229.5,291.885C2229.5,290.154 2229.54,288.929 2229.62,288.209C2229.7,287.489 2229.96,286.831 2230.39,286.235C2230.82,285.639 2231.4,285.181 2232.13,284.862C2232.86,284.543 2233.71,284.383 2234.68,284.383C2235.61,284.383 2236.43,284.534 2237.17,284.835C2237.9,285.137 2238.49,285.589 2238.94,286.192C2239.39,286.795 2239.65,287.451 2239.74,288.161C2239.82,288.87 2239.87,290.112 2239.87,291.885L2239.87,294.833ZM2235.39,289.172C2235.39,288.37 2235.34,287.858 2235.25,287.634C2235.16,287.411 2234.98,287.299 2234.7,287.299C2234.47,287.299 2234.29,287.389 2234.17,287.57C2234.04,287.751 2233.98,288.285 2233.98,289.172L2233.98,297.217C2233.98,298.217 2234.02,298.834 2234.1,299.069C2234.18,299.303 2234.38,299.42 2234.67,299.42C2234.98,299.42 2235.17,299.285 2235.26,299.015C2235.34,298.746 2235.39,298.104 2235.39,297.089L2235.39,289.172Z" style="fill-rule:nonzero;"/>
                    <path d="M2251.54,284.745L2251.54,301.974L2247.61,301.974L2245.28,294.141L2245.28,301.974L2241.54,301.974L2241.54,284.745L2245.28,284.745L2247.79,292.503L2247.79,284.745L2251.54,284.745Z" style="fill-rule:nonzero;"/>
                    <path d="M2262.83,289.959L2258.67,289.959L2258.67,288.682C2258.67,288.086 2258.62,287.707 2258.51,287.544C2258.4,287.38 2258.23,287.299 2257.98,287.299C2257.71,287.299 2257.5,287.409 2257.37,287.629C2257.23,287.849 2257.16,288.182 2257.16,288.629C2257.16,289.204 2257.24,289.637 2257.39,289.927C2257.54,290.218 2257.96,290.569 2258.66,290.981C2260.65,292.166 2261.91,293.138 2262.43,293.897C2262.94,294.656 2263.2,295.88 2263.2,297.568C2263.2,298.795 2263.06,299.7 2262.77,300.282C2262.49,300.863 2261.93,301.351 2261.11,301.745C2260.28,302.139 2259.33,302.336 2258.23,302.336C2257.03,302.336 2256.01,302.109 2255.16,301.654C2254.32,301.2 2253.76,300.622 2253.5,299.92C2253.24,299.218 2253.1,298.221 2253.1,296.93L2253.1,295.802L2257.26,295.802L2257.26,297.898C2257.26,298.544 2257.32,298.959 2257.44,299.143C2257.56,299.328 2257.76,299.42 2258.06,299.42C2258.36,299.42 2258.58,299.303 2258.73,299.069C2258.87,298.834 2258.95,298.487 2258.95,298.026C2258.95,297.011 2258.81,296.348 2258.53,296.036C2258.25,295.724 2257.55,295.202 2256.43,294.471C2255.32,293.734 2254.58,293.198 2254.22,292.864C2253.86,292.531 2253.56,292.07 2253.32,291.481C2253.09,290.892 2252.97,290.14 2252.97,289.225C2252.97,287.905 2253.13,286.941 2253.47,286.331C2253.81,285.72 2254.35,285.243 2255.11,284.899C2255.86,284.555 2256.76,284.383 2257.83,284.383C2258.99,284.383 2259.98,284.571 2260.8,284.947C2261.62,285.323 2262.16,285.797 2262.43,286.368C2262.7,286.939 2262.83,287.909 2262.83,289.278L2262.83,289.959Z" style="fill-rule:nonzero;"/>
                    <path d="M2273.63,284.745L2273.63,288.193L2270.97,288.193L2270.97,301.974L2266.49,301.974L2266.49,288.193L2263.84,288.193L2263.84,284.745L2273.63,284.745Z" style="fill-rule:nonzero;"/>
                    <path d="M2274.65,284.745L2277.83,284.745C2279.94,284.745 2281.37,284.827 2282.12,284.99C2282.87,285.153 2283.48,285.57 2283.95,286.24C2284.42,286.91 2284.66,287.98 2284.66,289.449C2284.66,290.789 2284.49,291.69 2284.16,292.152C2283.82,292.613 2283.17,292.889 2282.19,292.982C2283.08,293.201 2283.67,293.496 2283.98,293.865C2284.28,294.234 2284.47,294.572 2284.55,294.881C2284.62,295.19 2284.66,296.039 2284.66,297.43L2284.66,301.974L2280.5,301.974L2280.5,296.249C2280.5,295.326 2280.42,294.755 2280.28,294.535C2280.13,294.315 2279.75,294.205 2279.13,294.205L2279.13,301.974L2274.65,301.974L2274.65,284.745ZM2279.13,287.693L2279.13,291.524C2279.64,291.524 2279.99,291.454 2280.19,291.316C2280.39,291.178 2280.5,290.729 2280.5,289.97L2280.5,289.023C2280.5,288.477 2280.4,288.118 2280.2,287.948C2280.01,287.778 2279.65,287.693 2279.13,287.693Z" style="fill-rule:nonzero;"/>
                    <path d="M2296.58,284.745L2296.58,296.259C2296.58,297.565 2296.53,298.482 2296.45,299.01C2296.36,299.539 2296.11,300.081 2295.69,300.638C2295.27,301.195 2294.72,301.617 2294.04,301.905C2293.35,302.192 2292.55,302.336 2291.62,302.336C2290.59,302.336 2289.68,302.165 2288.89,301.825C2288.1,301.484 2287.52,301.041 2287.12,300.495C2286.74,299.948 2286.51,299.372 2286.43,298.765C2286.36,298.159 2286.33,296.883 2286.33,294.94L2286.33,284.745L2290.81,284.745L2290.81,297.664C2290.81,298.416 2290.85,298.897 2290.93,299.106C2291.01,299.315 2291.18,299.42 2291.43,299.42C2291.71,299.42 2291.89,299.304 2291.97,299.074C2292.05,298.843 2292.1,298.299 2292.1,297.44L2292.1,284.745L2296.58,284.745Z" style="fill-rule:nonzero;"/>
                    <path d="M2308.77,292.258L2304.29,292.258L2304.29,289.257C2304.29,288.384 2304.24,287.84 2304.15,287.623C2304.05,287.407 2303.84,287.299 2303.51,287.299C2303.14,287.299 2302.91,287.43 2302.81,287.693C2302.71,287.955 2302.66,288.523 2302.66,289.395L2302.66,297.398C2302.66,298.235 2302.71,298.781 2302.81,299.037C2302.91,299.292 2303.13,299.42 2303.48,299.42C2303.82,299.42 2304.03,299.292 2304.14,299.037C2304.24,298.781 2304.29,298.182 2304.29,297.238L2304.29,295.078L2308.77,295.078L2308.77,295.748C2308.77,297.529 2308.64,298.792 2308.39,299.537C2308.14,300.282 2307.58,300.934 2306.72,301.495C2305.86,302.055 2304.8,302.336 2303.53,302.336C2302.22,302.336 2301.14,302.098 2300.29,301.623C2299.44,301.147 2298.87,300.489 2298.6,299.649C2298.32,298.808 2298.18,297.543 2298.18,295.855L2298.18,290.821C2298.18,289.58 2298.22,288.649 2298.31,288.028C2298.39,287.407 2298.65,286.809 2299.07,286.235C2299.49,285.66 2300.08,285.208 2300.83,284.878C2301.58,284.548 2302.43,284.383 2303.41,284.383C2304.73,284.383 2305.82,284.638 2306.67,285.149C2307.53,285.66 2308.1,286.297 2308.37,287.059C2308.64,287.822 2308.77,289.009 2308.77,290.619L2308.77,292.258Z" style="fill-rule:nonzero;"/>
                    <path d="M2319.4,284.745L2319.4,288.193L2316.74,288.193L2316.74,301.974L2312.26,301.974L2312.26,288.193L2309.61,288.193L2309.61,284.745L2319.4,284.745Z" style="fill-rule:nonzero;"/>
                    <rect x="2320.42" y="284.745" width="4.48" height="17.229" style="fill-rule:nonzero;"/>
                    <path d="M2336.94,294.833C2336.94,296.564 2336.9,297.79 2336.82,298.51C2336.74,299.23 2336.48,299.888 2336.05,300.484C2335.62,301.08 2335.04,301.537 2334.31,301.857C2333.58,302.176 2332.73,302.336 2331.76,302.336C2330.83,302.336 2330.01,302.185 2329.27,301.883C2328.54,301.582 2327.95,301.13 2327.5,300.526C2327.05,299.923 2326.79,299.267 2326.7,298.558C2326.62,297.848 2326.57,296.607 2326.57,294.833L2326.57,291.885C2326.57,290.154 2326.62,288.929 2326.7,288.209C2326.78,287.489 2327.03,286.831 2327.46,286.235C2327.89,285.639 2328.47,285.181 2329.2,284.862C2329.93,284.543 2330.78,284.383 2331.76,284.383C2332.68,284.383 2333.51,284.534 2334.24,284.835C2334.98,285.137 2335.57,285.589 2336.01,286.192C2336.46,286.795 2336.73,287.451 2336.81,288.161C2336.9,288.87 2336.94,290.112 2336.94,291.885L2336.94,294.833ZM2332.46,289.172C2332.46,288.37 2332.41,287.858 2332.33,287.634C2332.24,287.411 2332.05,287.299 2331.78,287.299C2331.54,287.299 2331.37,287.389 2331.24,287.57C2331.12,287.751 2331.05,288.285 2331.05,289.172L2331.05,297.217C2331.05,298.217 2331.1,298.834 2331.18,299.069C2331.26,299.303 2331.45,299.42 2331.75,299.42C2332.05,299.42 2332.25,299.285 2332.33,299.015C2332.42,298.746 2332.46,298.104 2332.46,297.089L2332.46,289.172Z" style="fill-rule:nonzero;"/>
                    <path d="M2348.61,284.745L2348.61,301.974L2344.69,301.974L2342.36,294.141L2342.36,301.974L2338.61,301.974L2338.61,284.745L2342.36,284.745L2344.87,292.503L2344.87,284.745L2348.61,284.745Z" style="fill-rule:nonzero;"/>
                </g>
                <g transform="matrix(0.798428,-0.140293,0.0862279,1.29904,240.059,-24.2037)">
                    <path d="M2225.22,288.114C2226.42,288.425 2227.25,289.048 2227.71,289.981C2230.73,290.93 2232.25,292.576 2232.25,294.918L2232.65,296.586L2232.45,297.208L2233.27,301.122C2233.27,302.041 2231.62,303.627 2228.31,305.88C2225.24,307.392 2222.77,308.148 2220.88,308.148C2220.88,307.733 2220.75,307.526 2220.48,307.526L2221.08,306.28L2220.68,305.458C2221.65,304.746 2222.4,303.301 2222.95,301.122L2222.95,300.099L2222.53,296.586C2223.36,295.993 2223.77,295.437 2223.77,294.918C2223.77,293.628 2222.6,292.116 2220.26,290.382L2220.26,289.137L2220.88,288.536L2222.53,288.936C2222.9,288.566 2223.8,288.292 2225.22,288.114ZM2206.85,288.314L2207.05,288.536L2207.25,288.536L2208.5,288.314L2216.15,288.936L2217.37,288.536L2218.41,288.536L2218.41,288.736L2218.19,289.981C2218.37,294.384 2218.65,296.586 2219.04,296.586C2218.76,296.897 2218.62,297.72 2218.62,299.054L2218.41,299.254L2218.19,299.876L2218.41,301.122L2217.99,302.989L2218.41,303.812L2217.99,305.035L2218.62,306.08L2218.41,306.28L2218.41,307.326L2218.62,307.526C2218.33,308.667 2218.06,309.282 2217.79,309.371L2219.04,311.662L2219.04,311.862L2218.82,316.82C2219.14,317.087 2219.62,317.221 2220.26,317.221L2220.88,318.888L2220.68,318.888C2218.74,319.259 2217.57,319.6 2217.17,319.911L2213.03,318.888L2210.97,318.888L2209.52,319.711C2207.05,319.459 2205.81,319.044 2205.81,318.466C2205.81,317.917 2206.64,317.576 2208.3,317.443L2209.32,315.775L2209.32,314.952L2208.7,312.884L2208.7,312.262L2209.12,310.616L2207.88,308.348L2207.88,308.148L2208.5,305.035L2208.08,304.212L2208.5,302.767L2208.3,301.944L2208.5,300.299L2208.3,300.299L2208.5,300.099L2208.5,299.876L2208.3,298.431L2208.5,297.208L2208.3,296.986L2208.3,296.786L2208.7,295.14L2208.7,292.872C2208.15,292.872 2207.6,292.109 2207.05,290.582C2206.37,290.448 2205.89,290.174 2205.61,289.759L2206.85,288.314ZM2235.98,325.67L2235.91,325.67L2233.16,326.115L2231.82,325.759L2230.4,325.937L2229.33,325.759L2228.71,325.848L2228.62,325.759L2228.53,325.759L2228.18,325.848L2227.91,325.759L2227.64,325.848L2224.97,325.581L2224.17,325.67L2223.82,325.67L2223.73,325.759L2223.64,325.67L2222.75,325.67L2221.68,325.937L2220.44,325.581L2219.64,325.67L2219.55,325.67L2218.3,325.403L2217.5,325.67L2216.61,325.67L2215.64,325.848L2214.48,325.67L2214.12,325.67L2213.59,325.759L2213.14,325.67L2212.97,325.67L2212.88,325.759L2212.79,325.67L2212.43,325.67L2210.92,326.026C2209.14,325.952 2208.25,325.804 2208.25,325.581L2207.9,325.759L2207.81,325.67L2207.72,325.67C2207.62,325.789 2206.99,325.878 2205.85,325.937C2205.38,325.878 2205.14,325.641 2205.14,325.225L2205.14,324.87L2205.32,324.603L2205.32,324.336L2205.14,323.624L2205.14,323.447L2205.32,323.269L2205.94,323.269C2206.53,323.254 2206.83,323.195 2206.83,323.091L2207.54,323.18L2209.23,323.091L2211.01,323.447L2212.26,323.091L2213.59,323.269L2213.68,323.18L2213.77,323.18L2214.48,323.447L2215.99,323.18L2216.61,323.358L2216.7,323.269L2216.79,323.269L2217.41,323.447L2219.28,323.091L2219.91,323.358L2220.88,323.358C2221.53,323.269 2221.86,323.15 2221.86,323.002C2222.39,323.061 2222.66,323.15 2222.66,323.269C2223.26,323.209 2223.61,323.12 2223.73,323.002C2224.97,323.061 2225.6,323.15 2225.6,323.269L2225.86,323.091L2226.4,323.269L2226.66,323.269L2226.93,323.091L2227.38,323.091L2228.35,323.002L2228.44,323.091L2228.53,323.091L2229.33,323.002L2230.04,323.002L2231.56,323.358C2232.39,323.298 2232.8,323.12 2232.8,322.824L2233.34,323.002L2233.6,322.913L2234.14,323.091L2234.67,323.002C2235.28,323.076 2235.63,323.165 2235.74,323.269L2235.98,323.269L2235.98,325.67ZM2235.98,285.001L2235.05,285.134L2234.96,285.045L2234.51,285.134L2233.98,285.045L2232.65,285.223C2232.19,285.223 2231.65,285.134 2231.05,284.956L2230.96,284.956C2230.73,285.134 2230.53,285.223 2230.33,285.223L2230.07,285.223C2229.71,285.223 2229.36,285.045 2229,284.689L2227.93,284.867L2227.58,284.778L2227.22,284.867L2226.51,284.867C2226.17,285.104 2225.9,285.223 2225.71,285.223L2225,285.134L2224.91,285.134L2224.82,285.223L2224.37,284.956L2223.84,285.223L2223.31,285.045C2223.08,285.223 2222.82,285.312 2222.51,285.312L2222.24,285.312L2221.53,285.045C2220.34,285.045 2219.19,285.134 2218.06,285.312C2217.51,285.312 2217.04,285.134 2216.64,284.778C2216.64,285.015 2216.22,285.164 2215.39,285.223L2214.86,285.134L2214.24,285.312C2213.45,285.193 2212.97,285.075 2212.81,284.956L2212.72,284.956L2212.63,285.045L2210.68,284.867C2209.92,284.867 2209.45,284.986 2209.25,285.223L2209.08,285.223L2208.72,284.956L2208.19,285.134L2208.1,285.045L2207.83,285.045C2207.46,285.164 2206.75,285.253 2205.7,285.312L2205.07,284.956L2205.07,284.867L2205.16,284.778C2205.4,284.689 2205.52,284.6 2205.52,284.511L2205.52,284.422L2205.25,284.156L2205.43,283.533L2205.43,283.444C2205.43,283.326 2205.34,283.266 2205.16,283.266L2205.16,282.91L2205.52,282.288C2206.2,282.288 2206.79,282.377 2207.3,282.555C2207.98,282.555 2208.42,282.436 2208.63,282.199L2209.08,282.199L2210.59,282.466L2210.86,282.466L2211.83,282.199C2213.09,282.392 2213.83,282.569 2214.06,282.733L2214.41,282.733C2214.71,282.733 2214.89,282.644 2214.95,282.466L2215.03,282.466L2215.12,282.555L2215.48,282.555C2215.48,282.436 2216.16,282.288 2217.53,282.11L2218.06,282.199L2218.15,282.199L2218.24,282.11C2218.47,282.199 2218.59,282.288 2218.59,282.377L2219.22,282.288L2219.84,282.288L2222.15,282.733L2223.04,282.377L2223.04,282.466C2223.6,282.466 2224.14,282.377 2224.64,282.199L2225.53,282.377C2226.66,282.377 2227.52,282.258 2228.11,282.021C2229.3,282.436 2230.1,282.644 2230.51,282.644L2230.96,282.644C2231.67,282.406 2232.35,282.258 2233,282.199L2233.27,282.466L2233.53,282.466L2233.53,282.288L2233.8,282.288C2233.8,282.466 2233.95,282.555 2234.25,282.555L2234.43,282.555L2234.51,282.466L2234.96,282.733L2235.22,282.733C2235.34,282.614 2235.58,282.555 2235.94,282.555L2235.98,282.51L2235.98,285.001Z" style="fill:url(#_Linear1);fill-rule:nonzero;"/>
                    <path d="M2245.61,288.114L2246.83,288.114C2247.51,288.114 2247.92,288.388 2248.05,288.936L2247.86,289.537L2248.26,291.805L2248.05,293.028L2248.48,293.628L2248.26,293.851L2248.26,294.873C2248.26,296.163 2247.99,297.386 2247.45,298.542L2247.45,298.742C2248.14,300.418 2248.48,301.781 2248.48,302.834L2248.05,304.479L2248.05,306.725L2247.23,309.171L2247.45,310.616L2247.23,311.439C2247.62,311.439 2247.96,312.87 2248.26,315.731L2248.48,316.754L2249.9,317.776L2249.9,318.799L2249.5,319.2L2246.83,319.2L2245.41,319.622L2244.16,319.2L2244.16,319.4L2242.94,318.999L2242.74,318.999L2239.67,319.622L2238.65,319.4L2238.03,319.822C2236.4,319.718 2235.58,319.511 2235.58,319.2C2235.58,317.287 2236.13,316.331 2237.23,316.331L2238.85,313.485C2238.85,312.521 2238.44,311.358 2237.63,309.994L2237.63,309.794L2238.03,307.948L2237.83,304.279L2238.03,302.634L2237.83,302.033L2238.45,298.965L2238.25,297.72L2238.45,296.497L2238.25,296.296L2238.25,296.096L2238.45,295.074L2238.25,294.251L2238.45,294.051L2237.83,293.428L2238.25,292.828L2238.25,292.605C2238.25,292.368 2237.57,291.894 2236.2,291.182L2235.78,288.936L2237,288.514L2237.83,288.514L2238.65,289.137L2238.85,289.137L2239.05,288.936L2240.7,289.337L2244.16,288.936L2244.16,289.137L2245.61,288.114ZM2250.52,288.514L2252.35,288.936L2254.82,288.936C2256.56,288.936 2257.79,289.411 2258.48,290.359C2259.24,290.359 2259.79,290.841 2260.13,291.805C2260.62,291.805 2261.16,292.62 2261.75,294.251L2261.97,294.251L2261.55,299.565L2261.75,299.765C2261.46,299.795 2260.51,300.818 2258.91,302.834C2258.27,302.834 2257.31,303.516 2256.04,304.88L2256.04,305.302L2257.26,305.302C2260,305.302 2261.64,306.592 2262.18,309.171L2262.38,309.393L2262.18,310.416L2262.38,311.439C2262.14,311.721 2261.93,312.67 2261.75,314.285C2261.96,314.834 2262.17,315.108 2262.38,315.108L2262.58,315.108L2265.24,314.285L2265.84,315.531C2264.08,318.11 2262.52,319.4 2261.15,319.4C2261.15,319.815 2261.01,320.022 2260.73,320.022L2259.71,319.822L2258.68,320.022C2256.88,319.978 2254.97,318.888 2252.97,316.754L2252.77,315.108L2252.97,313.685L2252.15,311.639L2252.55,310.416C2252.55,307.689 2252.01,306.325 2250.92,306.325C2250.38,306.325 2250.1,305.369 2250.1,303.456C2251.33,303.116 2251.95,302.434 2251.95,301.411L2252.55,298.142L2251.95,295.274L2252.15,294.251C2252.15,292.946 2251.47,291.79 2250.1,290.782L2249.9,288.736L2250.52,288.514ZM2268.25,285.223L2267.89,285.245L2267.8,285.156L2267.18,285.245L2266.82,285.156C2266.66,284.934 2266.42,284.786 2266.11,284.712C2265.52,284.875 2265.22,284.993 2265.22,285.067L2264.42,284.978C2264.12,285.156 2263.83,285.245 2263.53,285.245L2263.18,285.245L2262.64,285.067L2261.93,285.156L2260.77,284.978L2259.8,285.334C2258.57,285.097 2257.41,284.978 2256.33,284.978L2256.24,284.978L2256.15,285.067L2256.06,284.978L2255.35,285.067L2254.82,284.978C2254.58,284.978 2254.46,285.067 2254.46,285.245C2254.09,285.245 2253.38,285.097 2252.33,284.8L2250.9,285.156L2250.55,285.156L2249.3,285.067L2249.03,285.156C2248.4,284.978 2247.86,284.889 2247.43,284.889L2246.99,284.889L2246.28,285.067L2246.01,285.067L2244.41,284.8L2243.88,284.978L2243.79,284.978L2243.7,284.889L2242.45,284.978L2242.18,284.978L2241.74,284.889L2241.65,284.978L2240.94,284.889L2240.67,284.978L2240.32,284.889C2240.07,285.127 2239.65,285.305 2239.07,285.423C2238.85,285.26 2238.46,285.141 2237.92,285.067L2237.92,285.156L2237.2,285.067C2237.03,285.067 2236.94,285.127 2236.94,285.245L2236.14,285.067C2235.54,285.067 2235.22,284.563 2235.16,283.555L2235.25,283.555C2235.31,282.784 2235.43,282.399 2235.6,282.399L2235.69,282.399L2236.23,282.488L2237.2,282.221C2237.2,282.325 2237.65,282.384 2238.54,282.399C2238.84,282.399 2239.01,282.31 2239.07,282.132L2239.16,282.221L2239.87,282.132C2240.07,282.132 2240.27,282.251 2240.49,282.488L2240.58,282.488L2240.58,282.31L2240.67,282.31L2240.94,282.577L2241.12,282.577C2241.67,282.162 2242.08,281.954 2242.36,281.954C2242.97,282.251 2243.41,282.399 2243.7,282.399L2245.21,282.221L2245.83,282.399L2247.08,282.399L2248.77,282.043L2249.03,282.043C2249.26,282.043 2249.67,282.251 2250.28,282.666C2250.75,282.488 2251.38,282.399 2252.15,282.399L2253.93,282.488L2255.35,282.221L2255.88,282.488L2256.15,282.399L2256.51,282.488L2257.22,282.31L2257.31,282.399L2258.11,282.399L2259.08,282.31C2259.32,282.429 2259.65,282.488 2260.06,282.488L2260.86,282.31C2261.58,282.31 2262.11,282.429 2262.46,282.666L2263.26,282.399L2264.15,282.488L2264.24,282.488L2264.33,282.399L2264.87,282.577L2265.49,282.221L2266.91,282.488L2267.62,282.31L2267.98,282.488L2268.25,282.421L2268.25,285.223ZM2268.25,325.448L2268.05,325.403C2267.7,325.581 2267.35,325.67 2266.98,325.67C2266.65,325.492 2266.33,325.403 2266,325.403L2263.24,325.848L2261.91,325.492L2260.49,325.67L2259.42,325.492L2258.8,325.581L2258.71,325.492L2258.62,325.492L2258.26,325.581L2257.99,325.492L2257.73,325.581L2255.06,325.314L2254.26,325.403L2253.9,325.403L2253.82,325.492L2253.73,325.403L2252.84,325.403L2251.77,325.67L2250.52,325.314L2249.72,325.403L2249.63,325.403L2248.39,325.137L2247.59,325.403L2246.7,325.403L2245.72,325.581L2244.56,325.403L2244.21,325.403L2243.68,325.492L2243.23,325.403L2243.05,325.403L2242.96,325.492L2242.87,325.403L2242.52,325.403L2241.01,325.759C2239.23,325.685 2238.34,325.537 2238.34,325.314L2237.98,325.492L2237.89,325.403L2237.8,325.403C2237.7,325.522 2237.08,325.611 2235.94,325.67C2235.46,325.611 2235.22,325.374 2235.22,324.959L2235.22,324.603L2235.4,324.336L2235.4,324.069L2235.22,323.358L2235.22,323.18L2235.4,323.002L2236.03,323.002C2236.62,322.987 2236.91,322.928 2236.91,322.824L2237.63,322.913L2239.32,322.824L2241.1,323.18L2242.34,322.824L2243.68,323.002L2243.76,322.913L2243.85,322.913L2244.56,323.18L2246.08,322.913L2246.7,323.091L2246.79,323.002L2246.88,323.002L2247.5,323.18L2249.37,322.824L2249.99,323.091L2250.97,323.091C2251.62,323.002 2251.95,322.883 2251.95,322.735C2252.48,322.794 2252.75,322.883 2252.75,323.002C2253.34,322.943 2253.7,322.854 2253.82,322.735C2255.06,322.794 2255.68,322.883 2255.68,323.002L2255.95,322.824L2256.48,323.002L2256.75,323.002L2257.02,322.824L2257.46,322.824L2258.44,322.735L2258.53,322.824L2258.62,322.824L2259.42,322.735L2260.13,322.735L2261.64,323.091C2262.47,323.032 2262.89,322.854 2262.89,322.557L2263.42,322.735L2263.69,322.646L2264.22,322.824L2264.76,322.735C2265.36,322.809 2265.72,322.898 2265.82,323.002L2267.69,323.002L2268.25,322.891L2268.25,325.448Z" style="fill:url(#_Linear2);fill-rule:nonzero;"/>
                    <path d="M2281.01,288.114C2281.54,288.247 2281.81,288.588 2281.81,289.137C2281.39,290.426 2280.59,291.368 2279.39,291.96L2278.99,294.384L2278.99,296.208L2279.19,297.631C2278.65,297.705 2278.39,297.905 2278.39,298.231L2278.59,298.453L2278.59,298.653L2278.18,300.054L2278.59,301.277L2278.39,302.3L2278.78,302.7L2278.78,303.101L2278.39,303.701L2278.39,304.324L2278.78,304.924L2278.78,305.725L2278.59,305.947L2278.99,306.747L2278.59,307.97L2278.59,311.617L2278.18,312.217L2278.18,313.218C2278.18,313.826 2279.19,315.316 2281.21,317.687C2281.21,319.17 2280.94,319.911 2280.41,319.911C2279.85,319.377 2278.5,318.903 2276.36,318.488C2273.34,316.976 2271.37,315.019 2270.47,312.618C2270.47,312.025 2270.14,311.15 2269.47,309.994C2269.47,309.668 2268.99,308.926 2268.05,307.77L2267.85,306.747C2268.38,305.932 2268.65,305.324 2268.65,304.924L2268.45,302.3C2268.99,301.099 2269.4,299.069 2269.67,296.208L2270.27,295.607L2270.07,293.784C2270.62,293.784 2270.89,293.443 2270.89,292.761C2272.11,292.761 2272.72,292.227 2272.72,291.16L2274.74,289.737L2275.94,289.937C2276.78,289.403 2278.47,288.796 2281.01,288.114ZM2285.26,288.514C2287.69,288.959 2288.9,289.633 2288.9,290.537C2289.2,290.819 2289.94,290.96 2291.13,290.96C2292.08,292.22 2292.55,293.228 2292.55,293.984C2293.56,293.984 2294.64,296.682 2295.8,302.078L2296,302.3C2295.46,303.323 2295.2,304.939 2295.2,307.148L2295.4,308.971C2295.01,310.32 2294.54,310.994 2293.97,310.994C2293.97,313.648 2292.56,315.605 2289.73,316.865C2288.84,318.214 2287.01,318.888 2284.26,318.888C2283.65,319.57 2283.04,319.911 2282.43,319.911L2282.23,319.311C2282.23,317.843 2283.04,316.694 2284.66,315.864C2284.94,314.352 2285.28,313.544 2285.68,313.44L2285.46,313.218L2285.46,312.818L2285.68,310.794C2284.86,308.363 2284.46,306.54 2284.46,305.324C2284.46,304.583 2284.86,303.909 2285.68,303.301L2285.88,301.678L2284.66,299.054L2285.46,296.007L2284.66,294.584L2284.86,293.584L2284.86,292.983C2284.86,291.975 2284.18,291.027 2282.83,290.137L2282.83,289.937L2283.03,288.914L2283.63,288.914L2285.26,288.514ZM2298.93,284.867L2298.8,284.823C2298.52,285.001 2297.98,285.09 2297.2,285.09L2297.11,285.09L2296.22,284.823L2295.51,284.823L2294.35,285.179L2293.28,285.179L2292.93,285.09L2292.84,285.179L2291.5,285.09L2289.28,285.356L2286.61,284.823L2285.63,284.912L2285.1,284.734L2285.01,284.734L2284.92,284.823L2284.21,284.645C2284.21,284.778 2283.71,284.956 2282.7,285.179C2282.48,285.416 2282.24,285.564 2281.99,285.623C2281.56,285.208 2281.11,285.001 2280.65,285.001L2280.21,285.267C2280.08,285.075 2279.63,284.897 2278.87,284.734L2277.81,285.001L2276.83,284.912L2276.38,284.912L2275.85,285.179C2275.57,285.001 2275.3,284.912 2275.05,284.912C2274.55,284.912 2274.13,284.971 2273.8,285.09L2271.85,284.823C2271.76,285.06 2271.67,285.179 2271.58,285.179L2270.78,285.179L2270.69,285.267L2269.53,284.734L2269.45,284.734L2267.71,285.156L2267.71,282.621L2268.11,282.688L2269.36,282.332L2269.98,282.421L2270.96,282.243L2271.49,282.51L2271.58,282.421L2271.67,282.421L2272.03,282.51L2272.83,282.243L2273.09,282.51L2273.54,282.421L2274.43,282.421L2275.49,282.332L2275.67,282.51L2275.85,282.332L2276.74,282.421L2277.54,282.421L2278.43,281.977L2279.85,282.332L2279.94,282.243L2280.03,282.243L2280.74,282.51L2281.72,282.51L2282.08,282.332L2282.43,282.51L2283.23,282.421L2283.32,282.51L2284.03,282.332L2284.3,282.332L2285.37,282.599L2286.26,282.421L2286.61,282.51L2287.86,282.243L2287.95,282.332L2288.04,282.332L2288.66,282.154L2288.93,282.243L2289.55,282.065L2290.35,282.332L2291.77,282.332L2292.3,282.421L2293.55,282.243L2295.06,282.599L2296.49,282.421L2297.11,282.51L2297.46,282.421L2297.91,282.51L2298.35,282.243L2298.8,282.51C2298.84,282.51 2298.89,282.503 2298.93,282.488L2298.93,284.867ZM2298.87,326.271L2298.62,326.359L2298.35,326.359C2298.04,326.359 2297.78,326.271 2297.55,326.093L2297.02,326.271L2296.49,326.004L2296.04,326.271L2295.95,326.182L2295.86,326.182L2295.15,326.271C2294.96,326.271 2294.69,326.152 2294.35,325.915L2293.64,325.915L2293.28,325.826L2292.93,325.915L2291.86,325.737C2291.5,326.093 2291.15,326.271 2290.79,326.271L2290.53,326.271C2290.33,326.271 2290.13,326.182 2289.9,326.004L2289.82,326.004C2289.21,326.182 2288.67,326.271 2288.21,326.271L2286.88,326.093L2286.35,326.182L2285.9,326.093L2285.81,326.182L2283.32,325.826L2282.08,326.182L2281.45,326.093L2280.47,326.271L2279.94,326.004L2279.85,326.093L2279.76,326.093L2279.41,326.004L2278.61,326.271L2278.34,326.004L2277.9,326.093L2277.01,326.093L2275.94,326.182L2275.76,326.004L2275.58,326.182L2274.69,326.093L2273.89,326.093L2273,326.537L2271.58,326.182L2271.49,326.271L2271.4,326.271L2270.69,326.004L2269.71,326.004L2269.36,326.182L2269,326.004L2268.2,326.093L2268.11,326.004L2267.71,326.093L2267.71,323.602C2267.96,323.513 2268.3,323.424 2268.74,323.335C2268.96,323.098 2269.19,322.95 2269.45,322.891C2269.88,323.306 2270.32,323.513 2270.78,323.513L2271.22,323.246C2271.36,323.439 2271.8,323.617 2272.56,323.78L2273.63,323.513L2274.61,323.602L2275.05,323.602L2275.58,323.335C2275.87,323.513 2276.13,323.602 2276.38,323.602C2276.89,323.602 2277.3,323.543 2277.63,323.424L2279.59,323.691C2279.68,323.454 2279.76,323.335 2279.85,323.335L2280.65,323.335L2280.74,323.246L2281.9,323.78L2281.99,323.78L2284.48,323.158L2284.92,323.602C2285.28,323.602 2285.52,323.662 2285.63,323.78L2285.9,323.78L2286.35,323.513L2286.43,323.602L2286.61,323.602C2286.91,323.602 2287.06,323.513 2287.06,323.335L2287.32,323.335L2287.32,323.513L2287.59,323.513L2287.86,323.246C2288.51,323.306 2289.19,323.454 2289.9,323.691L2290.35,323.691C2290.76,323.691 2291.56,323.484 2292.75,323.069C2293.34,323.306 2294.2,323.424 2295.33,323.424L2296.22,323.246C2296.72,323.424 2297.26,323.513 2297.82,323.513L2297.82,323.424L2298.71,323.78L2298.87,323.758L2298.87,326.271Z" style="fill:url(#_Linear3);fill-rule:nonzero;"/>
                    <path d="M2311.27,288.114L2311.47,288.114C2312.04,288.781 2313.1,289.114 2314.65,289.114L2314.65,289.314L2318.03,288.314C2320.3,288.566 2321.43,289.233 2321.43,290.315L2321.43,290.715L2319.83,291.494C2319.83,291.894 2319.57,292.494 2319.03,293.295L2319.43,295.496L2319.03,299.676L2319.03,300.677L2319.23,301.855L2318.83,302.856L2319.23,303.657L2319.03,303.857L2319.03,308.037L2319.23,308.237L2319.03,308.437L2319.03,308.838L2319.43,311.039L2319.43,312.818L2319.23,313.018L2319.43,313.218L2319.43,313.618C2317.99,316.138 2316.8,317.398 2315.85,317.398L2311.85,319.2C2311.02,319.733 2309.96,320 2308.67,320C2308.3,320 2307.83,319.466 2307.27,318.399C2307.27,317.643 2307.94,316.383 2309.27,314.619L2309.87,312.418L2309.87,312.217L2309.67,311.439L2309.87,311.239L2309.87,311.039L2308.87,305.258L2309.27,304.057L2309.27,303.456L2309.07,303.256L2309.47,301.655L2309.47,297.075L2309.87,295.296C2309.87,293.932 2309.2,292.665 2307.87,291.494C2307.87,290.975 2307.67,290.515 2307.27,290.115L2307.27,289.114L2307.67,288.714L2309.47,288.714C2310.17,288.714 2310.77,288.514 2311.27,288.114ZM2301.49,307.637L2304.09,307.637C2306.08,308.393 2307.07,309.327 2307.07,310.439L2307.07,312.418L2306.67,312.818C2306.24,312.818 2305.98,313.485 2305.89,314.819C2305.36,314.952 2305.09,315.353 2305.09,316.02L2304.69,316.02L2304.69,316.62C2305.62,316.754 2306.09,316.954 2306.09,317.221L2306.09,318.799L2304.09,319.2C2303.72,319.2 2303.05,318.599 2302.09,317.398C2300.83,316.894 2299.9,316.101 2299.31,315.019C2299.31,314.752 2298.98,314.352 2298.31,313.818L2298.31,313.018C2298.52,311.387 2299.58,309.594 2301.49,307.637ZM2324.24,325.715C2323.97,325.774 2323.66,325.804 2323.3,325.804L2322.5,325.626C2322.09,325.626 2321.76,325.685 2321.52,325.804L2320.55,325.715L2319.74,325.715L2319.66,325.804L2318.94,325.626L2318.59,325.715L2318.32,325.626L2317.79,325.893L2316.36,325.626L2314.59,325.715C2313.82,325.715 2313.19,325.626 2312.72,325.448C2312.11,325.863 2311.7,326.07 2311.47,326.07L2311.2,326.07L2309.52,325.715L2308.27,325.715L2307.65,325.893L2306.14,325.715C2305.85,325.715 2305.41,325.863 2304.8,326.159C2304.52,326.159 2304.11,325.952 2303.56,325.537L2303.38,325.537L2303.11,325.804L2303.02,325.804L2303.02,325.626L2302.93,325.626C2302.71,325.863 2302.5,325.981 2302.31,325.981L2301.6,325.893L2301.51,325.981C2301.45,325.804 2301.27,325.715 2300.98,325.715C2300.09,325.729 2299.64,325.789 2299.64,325.893L2298.66,325.626L2298.13,325.715L2298.04,325.715C2297.86,325.715 2297.74,325.329 2297.69,324.558L2297.6,324.558C2297.66,323.55 2297.98,323.046 2298.58,323.046L2299.38,322.868C2299.38,322.987 2299.47,323.046 2299.64,323.046L2300.35,322.957L2300.35,323.046C2300.9,322.972 2301.29,322.854 2301.51,322.691C2302.09,322.809 2302.5,322.987 2302.76,323.224L2303.11,323.135L2303.38,323.224L2304.09,323.135L2304.18,323.224L2304.62,323.135L2304.89,323.135L2306.14,323.224L2306.22,323.135L2306.31,323.135L2306.85,323.313L2308.45,323.046L2308.72,323.046L2309.43,323.224L2309.87,323.224C2310.3,323.224 2310.84,323.135 2311.47,322.957L2311.74,323.046L2312.98,322.957L2313.34,322.957L2314.76,323.313C2315.82,323.017 2316.53,322.868 2316.9,322.868C2316.9,323.046 2317.02,323.135 2317.25,323.135L2317.79,323.046L2318.5,323.135L2318.59,323.046L2318.68,323.135L2318.77,323.135C2319.85,323.135 2321,323.017 2322.24,322.779L2323.21,323.135L2324.24,322.98L2324.24,325.715ZM2324.17,285.267L2323.55,285.067L2322.12,285.067L2321.59,284.978L2320.34,285.156L2318.83,284.8L2317.41,284.978L2316.79,284.889L2316.43,284.978L2315.99,284.889L2315.54,285.156L2315.1,284.889C2314.41,284.949 2313.97,285.067 2313.76,285.245L2312.43,285.067L2311.63,285.245L2311.36,284.978L2311.09,284.978L2310.83,285.245L2310.47,285.156L2309.94,285.245L2308.78,284.978L2308.78,285.067L2307.36,284.623L2305.49,285.156L2303,284.889C2302.94,285.067 2302.76,285.156 2302.47,285.156L2302.11,285.156C2301.8,285.156 2301.53,285.067 2301.31,284.889L2299.44,285.156C2298.61,285.156 2298.2,284.949 2298.2,284.534L2298.29,284.178C2298.29,283.674 2298.14,283.2 2297.84,282.755C2298.02,282.28 2298.43,282.043 2299.09,282.043L2300.42,282.399L2300.78,282.399L2302.38,282.577L2303.36,282.399L2303.89,282.488L2306.56,282.043L2307,282.043C2307.17,282.28 2308.03,282.399 2309.58,282.399L2310.65,282.399L2311.45,282.31C2312.28,282.399 2312.7,282.488 2312.7,282.577L2314.47,282.399L2315.1,282.577C2315.38,282.399 2315.91,282.31 2316.7,282.31L2316.79,282.31L2317.68,282.577L2318.39,282.577L2319.54,282.221L2320.61,282.221L2320.97,282.31L2321.06,282.221L2322.39,282.31L2324.17,282.088L2324.17,285.267Z" style="fill:url(#_Linear4);fill-rule:nonzero;"/>
                    <path d="M2329.19,288.114C2330.78,288.796 2332.43,289.211 2334.15,289.359L2335.6,288.936C2335.87,288.936 2336.35,289.485 2337.04,290.582L2337.04,292.45L2336.22,293.673L2336.22,294.718L2336.42,297.186L2336,300.077L2337.44,303.39C2337.44,304.161 2336.83,306.154 2335.6,309.371L2335.6,309.571L2336,310.194L2335.8,311.017L2336.22,313.085L2336,313.285L2336,313.485L2336.22,313.685L2336.22,314.308L2336,314.308L2336.22,315.753L2336.22,319.266L2336,319.466L2336,319.666L2335.8,319.466L2335.6,319.466L2331.89,320.089L2329.19,318.644L2326.73,319.666L2326.3,319.666C2325.55,319.666 2324.87,319.192 2324.26,318.243C2324.26,317.68 2324.87,317.265 2326.1,316.998L2326.3,316.798L2326.3,316.576L2325.9,315.753L2326.73,313.485C2326.73,312.269 2326.52,311.38 2326.1,310.817L2326.53,309.149L2326.53,307.103L2326.3,306.258L2326.53,305.435L2326.1,302.545L2326.73,300.277L2326.1,296.986L2326.73,293.673C2325.97,292.22 2325.01,291.19 2323.84,290.582C2323.84,289.07 2325.62,288.314 2329.19,288.314L2329.19,288.114ZM2339.93,288.114L2340.76,288.536L2340.96,288.314L2341.16,288.314L2343.43,288.736L2345.69,288.536L2347.36,288.936L2347.36,289.959L2347.56,296.563C2346.97,297.305 2346.28,297.72 2345.49,297.809L2343.85,295.741L2343.85,295.118L2344.05,294.918C2343.17,293.272 2342.28,292.45 2341.38,292.45L2341.16,291.627L2339.31,291.827C2338.62,291.738 2338.27,291.323 2338.27,290.582L2338.27,288.936C2338.27,288.67 2338.82,288.395 2339.93,288.114ZM2342.4,297.186L2342.4,298.431C2342.77,298.431 2343.11,300.699 2343.43,305.235L2343.22,305.858L2343.85,307.503L2343.65,307.704L2343.85,308.749C2343.67,309.846 2343.26,310.394 2342.6,310.394C2342.08,310.364 2341.26,309.468 2340.13,307.704C2339.85,307.704 2339.71,307.296 2339.71,306.481L2338.27,305.035C2338.27,303.108 2338.75,302.145 2339.71,302.145C2339.71,301.863 2339.92,301.722 2340.34,301.722L2341.38,297.386L2341.58,297.186L2342.4,297.186ZM2346.74,309.972C2347.38,309.972 2347.78,311.076 2347.96,313.285L2348.18,313.285L2347.56,314.93L2347.76,315.13L2347.56,316.175L2347.56,319.466L2346.74,319.666L2342.83,319.066L2338.49,319.666L2338.69,319.066L2338.49,317.821L2338.49,317.621C2338.49,317.339 2339.1,317.198 2340.34,317.198C2340.51,316.783 2341.48,316.094 2343.22,315.13C2344.28,312.536 2345.31,310.817 2346.32,309.972L2346.74,309.972ZM2351.14,285.134L2350.52,284.934C2350.16,285.171 2349.63,285.29 2348.92,285.29L2348.12,285.112C2347.7,285.112 2347.38,285.171 2347.14,285.29L2346.16,285.201L2345.36,285.201L2345.27,285.29L2344.56,285.112L2344.2,285.201L2343.94,285.112L2343.4,285.379L2341.98,285.112L2340.2,285.201C2339.43,285.201 2338.81,285.112 2338.33,284.934C2337.73,285.349 2337.31,285.557 2337.09,285.557L2336.82,285.557L2335.13,285.201L2333.89,285.201L2333.26,285.379L2331.75,285.201C2331.47,285.201 2331.03,285.349 2330.42,285.645C2330.14,285.645 2329.72,285.438 2329.17,285.023L2328.99,285.023L2328.73,285.29L2328.64,285.29L2328.64,285.112L2328.55,285.112C2328.33,285.349 2328.12,285.468 2327.93,285.468L2327.22,285.379L2327.13,285.468C2327.07,285.29 2326.89,285.201 2326.59,285.201C2325.7,285.216 2325.26,285.275 2325.26,285.379L2324.28,285.112L2323.75,285.201L2323.66,285.201C2323.48,285.201 2323.36,284.815 2323.3,284.044L2323.21,284.044C2323.27,283.036 2323.6,282.532 2324.19,282.532L2324.99,282.355C2324.99,282.473 2325.08,282.532 2325.26,282.532L2325.97,282.443L2325.97,282.532C2326.52,282.458 2326.9,282.34 2327.13,282.177C2327.7,282.295 2328.12,282.473 2328.37,282.71L2328.73,282.621L2328.99,282.71L2329.71,282.621L2329.8,282.71L2330.24,282.621L2330.51,282.621L2331.75,282.71L2331.84,282.621L2331.93,282.621L2332.46,282.799L2334.06,282.532L2334.33,282.532L2335.04,282.71L2335.49,282.71C2335.92,282.71 2336.45,282.621 2337.09,282.443L2337.36,282.532L2338.6,282.443L2338.96,282.443L2340.38,282.799C2341.43,282.503 2342.14,282.355 2342.51,282.355C2342.51,282.532 2342.63,282.621 2342.87,282.621L2343.4,282.532L2344.12,282.621L2344.2,282.532L2344.29,282.621L2344.38,282.621C2345.46,282.621 2346.62,282.503 2347.85,282.266L2348.83,282.621L2349.99,282.443L2350.7,282.532L2351.14,282.377L2351.14,285.134ZM2351.08,325.959L2350.45,326.137L2350.18,326.048L2349.56,326.226L2348.76,325.959L2347.34,325.959L2346.8,325.87L2345.56,326.048L2344.05,325.692L2342.62,325.87L2342,325.781L2341.65,325.87L2341.2,325.781L2340.76,326.048L2340.31,325.781C2339.63,325.841 2339.19,325.959 2338.98,326.137L2337.64,325.959L2336.84,326.137L2336.58,325.87L2336.31,325.87L2336.04,326.137L2335.69,326.048L2335.15,326.137L2334,325.87L2334,325.959L2332.57,325.515L2330.71,326.048L2328.22,325.781C2328.16,325.959 2327.98,326.048 2327.68,326.048L2327.33,326.048C2327.01,326.048 2326.75,325.959 2326.53,325.781L2324.66,326.048C2323.83,326.048 2323.41,325.841 2323.41,325.426L2323.5,325.07C2323.5,324.566 2323.35,324.091 2323.06,323.647C2323.24,323.172 2323.65,322.935 2324.3,322.935L2325.64,323.291L2325.99,323.291L2327.59,323.469L2328.57,323.291L2329.11,323.38L2331.77,322.935L2332.22,322.935C2332.38,323.172 2333.24,323.291 2334.8,323.291L2335.87,323.291L2336.67,323.202C2337.5,323.291 2337.91,323.38 2337.91,323.469L2339.69,323.291L2340.31,323.469C2340.59,323.291 2341.13,323.202 2341.91,323.202L2342,323.202L2342.89,323.469L2343.6,323.469L2344.76,323.113L2345.83,323.113L2346.18,323.202L2346.27,323.113L2347.61,323.202L2349.83,322.935L2351.08,323.18L2351.08,325.959Z" style="fill:url(#_Linear5);fill-rule:nonzero;"/>
                    <path d="M2363.33,288.114L2363.93,288.314L2363.93,290.115C2363.93,291.034 2363.25,291.568 2361.9,291.716L2362.1,291.916L2361.5,292.939L2361.7,294.34L2361.3,294.74L2361.3,296.141L2361.5,296.341L2361.3,296.541L2361.3,296.741L2361.7,298.342L2361.7,298.943C2360.9,300.855 2360.5,302.196 2360.5,302.967L2361.7,306.569L2361.3,307.77L2361.3,309.193L2361.9,311.995L2361.3,313.796L2361.3,314.597C2361.3,315.308 2362.24,316.45 2364.13,318.021L2363.73,319.422L2363.53,319.422C2362.83,319.422 2362.22,319.222 2361.7,318.821L2361.3,318.821L2359.5,319.022C2358.87,318.918 2358.33,318.584 2357.9,318.021L2353.68,315.797L2354.08,314.797C2353.14,314.589 2352.68,314.256 2352.68,313.796L2352.88,313.596L2352.88,313.396L2350.87,308.393C2351.14,307.8 2351.28,306.725 2351.28,305.169L2350.67,301.967C2350.67,299.135 2351.47,297.327 2353.08,296.541L2353.28,296.341L2353.28,296.141L2352.68,295.14C2353.02,294.458 2353.62,293.858 2354.48,293.339C2354.7,292.361 2356.24,291.019 2359.1,289.314C2359.1,289.003 2360.51,288.603 2363.33,288.114ZM2367.73,288.314C2367.73,288.67 2368.74,289.203 2370.75,289.915C2371.69,289.915 2372.55,289.448 2373.36,288.514L2373.76,288.514C2374.42,288.855 2374.76,289.455 2374.76,290.315C2374.76,290.982 2374.62,291.316 2374.36,291.316C2374.62,291.642 2374.82,292.716 2374.96,294.54L2374.76,297.942L2375.36,299.543C2374.97,300.492 2374.37,300.966 2373.55,300.966C2373.55,300.61 2373.22,300.343 2372.55,300.166L2370.95,294.74C2370.61,294.74 2370.07,294.273 2369.33,293.339C2368.66,293.235 2368.33,293.035 2368.33,292.739L2368.53,291.916C2367.86,291.427 2366.86,291.093 2365.53,290.915C2365.53,289.448 2365.93,288.714 2366.73,288.714C2366.73,288.447 2367.06,288.314 2367.73,288.314ZM2374.76,310.594L2374.96,310.794C2374.79,312.87 2374.39,314.404 2373.76,315.397C2372.82,315.397 2372.35,315.938 2372.35,317.02L2369.33,318.021L2369.33,317.821L2367.13,320.022L2365.93,320.022C2365.39,319.8 2365.13,319.333 2365.13,318.621L2365.13,317.821C2365.13,317.584 2366.86,316.709 2370.33,315.197C2371.81,312.128 2373.29,310.594 2374.76,310.594ZM2378.94,325.848L2378.58,325.959L2378.31,325.87L2377.78,326.048C2377.78,325.752 2377.37,325.574 2376.53,325.515L2375.02,325.87L2374.31,325.87L2373.51,325.781L2373.42,325.781L2373.33,325.87L2372.35,325.781L2371.91,325.781L2371.64,325.603L2371.38,325.603L2370.84,325.781L2370.58,325.603C2370.58,325.722 2369.95,325.811 2368.71,325.87C2368.59,325.752 2368.23,325.663 2367.64,325.603C2367.64,325.722 2367.37,325.811 2366.84,325.87C2366.84,325.722 2366.51,325.603 2365.86,325.515L2364.88,325.515L2364.26,325.781L2362.39,325.426L2361.77,325.603L2361.68,325.603L2361.59,325.515L2360.97,325.692L2359.46,325.426L2358.75,325.692L2358.66,325.692L2358.57,325.603L2357.23,325.781L2355.99,325.426L2354.21,325.781L2352.52,325.692L2351.81,325.781C2351.81,325.678 2351.51,325.618 2350.92,325.603L2350.3,325.603L2350.12,325.426L2350.12,325.248L2350.3,324.536L2350.3,324.269L2350.12,324.002L2350.12,323.647C2350.12,323.232 2350.36,322.994 2350.83,322.935C2351.97,322.994 2352.59,323.083 2352.7,323.202L2352.79,323.202L2352.88,323.113L2353.23,323.291C2353.23,323.069 2354.12,322.92 2355.9,322.846L2357.41,323.202L2357.77,323.202L2357.86,323.113L2357.95,323.202L2358.12,323.202L2358.57,323.113L2359.1,323.202L2359.46,323.202L2360.61,323.024L2361.59,323.202L2362.48,323.202L2363.28,323.469L2364.53,323.202L2364.62,323.202L2365.42,323.291L2366.66,322.935L2367.73,323.202L2368.62,323.202L2368.71,323.113L2368.8,323.202L2369.15,323.202L2369.95,323.291L2372.62,323.024L2372.89,323.113L2373.16,323.024L2373.51,323.113L2373.6,323.113L2373.69,323.024L2374.31,323.113L2375.38,322.935L2376.8,323.113L2378.14,322.757L2378.94,322.891L2378.94,325.848ZM2378.94,285.267L2377.76,285.423C2377.3,285.423 2376.76,285.334 2376.16,285.156L2376.07,285.156C2375.85,285.334 2375.64,285.423 2375.45,285.423L2375.18,285.423C2374.82,285.423 2374.47,285.245 2374.11,284.889L2373.04,285.067L2372.69,284.978L2372.33,285.067L2371.62,285.067C2371.28,285.305 2371.01,285.423 2370.82,285.423L2370.11,285.334L2370.02,285.334L2369.93,285.423L2369.49,285.156L2368.95,285.423L2368.42,285.245C2368.2,285.423 2367.93,285.512 2367.62,285.512L2367.35,285.512L2366.64,285.245C2365.45,285.245 2364.3,285.334 2363.17,285.512C2362.62,285.512 2362.15,285.334 2361.75,284.978C2361.75,285.216 2361.33,285.364 2360.5,285.423L2359.97,285.334L2359.35,285.512C2358.56,285.393 2358.09,285.275 2357.92,285.156L2357.83,285.156L2357.74,285.245L2355.79,285.067C2355.03,285.067 2354.56,285.186 2354.37,285.423L2354.19,285.423L2353.83,285.156L2353.3,285.334L2353.21,285.245L2352.94,285.245C2352.57,285.364 2351.86,285.453 2350.81,285.512L2350.18,285.156L2350.18,285.067L2350.27,284.978C2350.51,284.889 2350.63,284.8 2350.63,284.712L2350.63,284.623L2350.36,284.356L2350.54,283.733L2350.54,283.644C2350.54,283.526 2350.45,283.466 2350.27,283.466L2350.27,283.111L2350.63,282.488C2351.31,282.488 2351.91,282.577 2352.41,282.755C2353.09,282.755 2353.53,282.636 2353.74,282.399L2354.19,282.399L2355.7,282.666L2355.97,282.666L2356.95,282.399C2358.2,282.592 2358.95,282.77 2359.17,282.933L2359.52,282.933C2359.82,282.933 2360,282.844 2360.06,282.666L2360.15,282.666L2360.24,282.755L2360.59,282.755C2360.59,282.636 2361.27,282.488 2362.64,282.31L2363.17,282.399L2363.26,282.399L2363.35,282.31C2363.59,282.399 2363.7,282.488 2363.7,282.577L2364.33,282.488L2364.95,282.488L2367.26,282.933L2368.15,282.577L2368.15,282.666C2368.72,282.666 2369.25,282.577 2369.75,282.399L2370.64,282.577C2371.77,282.577 2372.63,282.458 2373.22,282.221C2374.41,282.636 2375.21,282.844 2375.62,282.844L2376.07,282.844C2376.78,282.607 2377.46,282.458 2378.11,282.399L2378.38,282.666L2378.65,282.666L2378.65,282.488L2378.91,282.488C2378.91,282.532 2378.92,282.569 2378.94,282.599L2378.94,285.267Z" style="fill:url(#_Linear6);fill-rule:nonzero;"/>
                    <path d="M2380.43,288.114L2382.09,288.314L2383.54,288.114C2384.9,288.114 2385.67,289.018 2385.83,290.826L2383.76,292.072L2383.76,292.472C2383.76,293.776 2383.35,294.821 2382.52,295.607C2382.52,298.379 2382.03,299.765 2381.05,299.765L2380.43,299.765C2379.92,299.765 2379.51,298.794 2379.18,296.852L2379.38,296.63L2379.38,296.43L2379.18,295.185L2379.38,292.272L2379.18,292.072L2379.18,291.849L2379.38,291.227C2379.07,291.227 2378.8,290.397 2378.56,288.736C2378.56,288.321 2379.18,288.114 2380.43,288.114ZM2399.13,285.134C2399.08,285.149 2399.05,285.156 2399.01,285.156C2397.87,285.097 2397.25,285.008 2397.15,284.889L2397.06,284.889L2396.97,284.978L2396.61,284.8C2396.61,285.023 2395.72,285.171 2393.95,285.245L2392.43,284.889L2392.08,284.889L2391.99,284.978L2391.9,284.889L2391.72,284.889L2391.28,284.978L2390.74,284.889L2390.39,284.889L2389.23,285.067L2388.25,284.889L2387.36,284.889L2386.56,284.623L2385.32,284.889L2385.23,284.889L2384.43,284.8L2383.18,285.156L2382.12,284.889L2381.23,284.889L2381.14,284.978L2381.05,284.889L2380.69,284.889L2379.89,284.8L2377.96,285.001L2377.96,282.332L2378.2,282.488L2378.47,282.488L2379,282.31L2379.27,282.488C2379.27,282.369 2379.89,282.28 2381.14,282.221C2381.26,282.34 2381.61,282.429 2382.2,282.488C2382.2,282.369 2382.47,282.28 2383.01,282.221C2383.01,282.369 2383.33,282.488 2383.98,282.577L2384.96,282.577L2385.59,282.31L2387.45,282.666L2388.08,282.488L2388.16,282.488L2388.25,282.577L2388.88,282.399L2390.39,282.666L2391.1,282.399L2391.19,282.399L2391.28,282.488L2392.61,282.31L2393.86,282.666L2395.64,282.31L2397.33,282.399L2398.04,282.31C2398.04,282.414 2398.33,282.473 2398.93,282.488L2398.97,282.488L2399.13,282.221C2399.81,282.221 2400.4,282.31 2400.91,282.488C2401.59,282.488 2402.03,282.369 2402.24,282.132L2402.68,282.132L2404.2,282.399L2404.46,282.399L2405.44,282.132C2406.7,282.325 2407.44,282.503 2407.66,282.666L2408.02,282.666C2408.32,282.666 2408.49,282.577 2408.55,282.399L2408.64,282.399L2408.73,282.488L2409.09,282.488L2409.09,285.156L2409,285.156L2408.47,285.067L2407.84,285.245C2407.06,285.127 2406.58,285.008 2406.42,284.889L2406.33,284.889L2406.24,284.978L2404.28,284.8C2403.53,284.8 2403.05,284.919 2402.86,285.156L2402.68,285.156L2402.33,284.889L2401.8,285.067L2401.71,284.978L2401.44,284.978C2401.07,285.097 2400.36,285.186 2399.3,285.245L2399.13,285.134ZM2398.9,325.581L2398.82,325.581L2398.01,325.759C2398.01,325.641 2397.93,325.581 2397.75,325.581L2397.04,325.67L2397.04,325.581C2396.49,325.655 2396.1,325.774 2395.88,325.937C2395.3,325.818 2394.89,325.641 2394.64,325.403L2394.28,325.492L2394.01,325.403L2393.3,325.492L2393.21,325.403L2392.77,325.492L2392.5,325.492L2391.26,325.403L2391.17,325.492L2391.08,325.492L2390.54,325.314L2388.94,325.581L2388.68,325.581L2387.96,325.403L2387.52,325.403C2387.09,325.403 2386.56,325.492 2385.92,325.67L2385.65,325.581L2384.41,325.67L2384.05,325.67L2382.63,325.314C2381.58,325.611 2380.86,325.759 2380.49,325.759C2380.49,325.581 2380.37,325.492 2380.14,325.492L2379.6,325.581L2378.89,325.492L2378.8,325.581L2378.71,325.492L2378.62,325.492C2378.4,325.492 2378.18,325.5 2377.96,325.515L2377.96,322.868L2378.45,323.002L2378.8,322.913L2379.07,323.002L2379.6,322.735L2381.03,323.002L2382.8,322.913C2383.58,322.913 2384.2,323.002 2384.67,323.18C2385.28,322.765 2385.7,322.557 2385.92,322.557L2386.18,322.557L2387.88,322.913L2389.12,322.913L2389.74,322.735L2391.26,322.913C2391.54,322.913 2391.98,322.765 2392.59,322.468C2392.89,322.468 2393.3,322.676 2393.83,323.091L2394.01,323.091L2394.28,322.824L2394.37,322.824L2394.37,323.002L2394.46,323.002C2394.69,322.765 2394.9,322.646 2395.08,322.646L2395.79,322.735L2395.88,322.646C2395.94,322.824 2396.12,322.913 2396.41,322.913C2397.3,322.898 2397.75,322.839 2397.75,322.735L2398.73,323.002L2399.26,322.913L2399.39,322.913C2399.5,322.898 2399.62,322.891 2399.75,322.891L2401.08,323.246L2401.44,323.246L2403.04,323.424L2404.02,323.246L2404.55,323.335L2407.22,322.891L2407.66,322.891C2407.78,323.054 2408.26,323.165 2409.09,323.224L2409.09,325.804L2408.02,325.47L2406.15,326.004L2403.66,325.737C2403.6,325.915 2403.43,326.004 2403.13,326.004L2402.77,326.004C2402.46,326.004 2402.2,325.915 2401.97,325.737L2400.11,326.004C2399.42,326.004 2399.02,325.863 2398.9,325.581ZM2401.44,288.314L2404.55,288.314C2405.25,289.648 2405.6,291.108 2405.6,292.694C2405.18,293.421 2404.97,294.392 2404.97,295.607L2405.4,296.43L2404.55,299.765L2403.51,299.765C2403.09,299.765 2402.75,299.002 2402.48,297.475L2402.88,297.053C2402.88,294.518 2402.26,292.924 2401.02,292.272C2401.02,291.442 2400.53,291.027 2399.57,291.027L2399.35,290.826L2399.35,290.604L2399.77,289.781L2399.57,288.736L2401.44,288.314ZM2393.52,288.314L2394.37,288.536L2395.41,288.314C2396.1,288.314 2396.78,288.662 2397.48,289.359L2397.28,293.317L2397.48,295.185L2397.06,296.23L2397.68,299.965C2397.37,299.965 2397.16,300.455 2397.06,301.433L2397.28,302.056L2396.86,303.301L2396.86,303.501L2397.06,304.124L2396.66,308.504C2396.98,308.934 2397.26,310.453 2397.48,313.062L2397.28,313.907L2397.48,314.53L2397.06,314.952L2397.06,315.975C2397.21,316.42 2397.97,316.835 2399.35,317.221L2399.57,318.266L2399.57,318.688C2399.2,318.688 2398.85,319.036 2398.53,319.733L2397.9,319.733L2396.66,319.511C2396.04,319.792 2395.13,319.933 2393.95,319.933L2392.7,319.511L2392.7,319.733L2392.5,319.511L2392.08,319.511L2390.41,319.933C2389.74,319.933 2388.91,319.585 2387.92,318.888L2385.83,319.511C2385.83,319.17 2385.55,318.962 2385.01,318.888L2385.01,318.488C2385.42,318.488 2385.63,318.14 2385.63,317.443C2386.28,317.443 2386.76,316.539 2387.08,314.73L2387.3,314.53L2387.3,312.662C2387.3,309.786 2387.57,308.193 2388.12,307.881L2388.12,307.659C2387.85,305.91 2387.44,304.872 2386.87,304.546L2386.87,304.346C2387.29,303.827 2387.5,303.338 2387.5,302.878L2387.5,301.433L2387.08,298.098L2387.08,297.897C2387.08,296.934 2387.5,295.889 2388.34,294.762C2388.34,292.657 2388.13,290.715 2387.72,288.936L2387.92,288.936L2391.88,289.159C2391.88,288.788 2392.43,288.506 2393.52,288.314Z" style="fill:url(#_Linear7);fill-rule:nonzero;"/>
                </g>
            </g>
        </g>
    </g>
    <defs>
        <linearGradient id="_Linear1" x1="0" y1="0" x2="1" y2="0" gradientUnits="userSpaceOnUse" gradientTransform="matrix(202.992,0,0,48.7412,2205.56,304.546)"><stop offset="0" style="stop-color:rgb(255,0,66);stop-opacity:1"/><stop offset="1" style="stop-color:rgb(255,0,126);stop-opacity:1"/></linearGradient>
        <linearGradient id="_Linear2" x1="0" y1="0" x2="1" y2="0" gradientUnits="userSpaceOnUse" gradientTransform="matrix(202.992,0,0,48.7412,2205.56,304.546)"><stop offset="0" style="stop-color:rgb(255,0,66);stop-opacity:1"/><stop offset="1" style="stop-color:rgb(255,0,126);stop-opacity:1"/></linearGradient>
        <linearGradient id="_Linear3" x1="0" y1="0" x2="1" y2="0" gradientUnits="userSpaceOnUse" gradientTransform="matrix(202.992,0,0,48.7412,2205.56,304.546)"><stop offset="0" style="stop-color:rgb(255,0,66);stop-opacity:1"/><stop offset="1" style="stop-color:rgb(255,0,126);stop-opacity:1"/></linearGradient>
        <linearGradient id="_Linear4" x1="0" y1="0" x2="1" y2="0" gradientUnits="userSpaceOnUse" gradientTransform="matrix(202.992,0,0,48.7412,2205.56,304.546)"><stop offset="0" style="stop-color:rgb(255,0,66);stop-opacity:1"/><stop offset="1" style="stop-color:rgb(255,0,126);stop-opacity:1"/></linearGradient>
        <linearGradient id="_Linear5" x1="0" y1="0" x2="1" y2="0" gradientUnits="userSpaceOnUse" gradientTransform="matrix(202.992,0,0,48.7412,2205.56,304.546)"><stop offset="0" style="stop-color:rgb(255,0,66);stop-opacity:1"/><stop offset="1" style="stop-color:rgb(255,0,126);stop-opacity:1"/></linearGradient>
        <linearGradient id="_Linear6" x1="0" y1="0" x2="1" y2="0" gradientUnits="userSpaceOnUse" gradientTransform="matrix(202.992,0,0,48.7412,2205.56,304.546)"><stop offset="0" style="stop-color:rgb(255,0,66);stop-opacity:1"/><stop offset="1" style="stop-color:rgb(255,0,126);stop-opacity:1"/></linearGradient>
        <linearGradient id="_Linear7" x1="0" y1="0" x2="1" y2="0" gradientUnits="userSpaceOnUse" gradientTransform="matrix(202.992,0,0,48.7412,2205.56,304.546)"><stop offset="0" style="stop-color:rgb(255,0,66);stop-opacity:1"/><stop offset="1" style="stop-color:rgb(255,0,126);stop-opacity:1"/></linearGradient>
    </defs>
</svg>
