<?xml version="1.0" encoding="UTF-8" standalone="no"?>
<!DOCTYPE svg PUBLIC "-//W3C//DTD SVG 1.1//EN" "http://www.w3.org/Graphics/SVG/1.1/DTD/svg11.dtd">
<svg width="100%" height="100%" viewBox="0 0 199 68" version="1.1" xmlns="http://www.w3.org/2000/svg" xmlns:xlink="http://www.w3.org/1999/xlink" xml:space="preserve" xmlns:serif="http://www.serif.com/" style="fill-rule:evenodd;clip-rule:evenodd;stroke-linejoin:round;stroke-miterlimit:2;">
    <g transform="matrix(1,0,0,1,-1916,-672)">
        <g id="Plan-de-travail4" serif:id="Plan de travail4" transform="matrix(0.857759,0,0,0.503704,272.534,333.511)">
            <rect x="1916" y="672" width="232" height="135" style="fill:none;"/>
            <g transform="matrix(3.46361,0,0,5.89819,-295.002,-3493.49)">
                <path d="M641.129,711.104L644.65,707.495L646.473,707.495L642.383,711.59L646.496,716.541L644.668,716.541L641.41,712.516L641.129,712.797L641.129,716.541L639.764,716.541L639.764,707.495L641.129,707.495L641.129,711.104ZM652.707,708.778L649.08,708.778L649.08,710.952L652.601,710.952L652.601,712.235L649.08,712.235L649.08,715.258L652.707,715.258L652.707,716.541L647.715,716.541L647.715,707.495L652.707,707.495L652.707,708.778ZM659.492,708.778L655.865,708.778L655.865,710.952L659.387,710.952L659.387,712.235L655.865,712.235L655.865,715.258L659.492,715.258L659.492,716.541L654.5,716.541L654.5,707.495L659.492,707.495L659.492,708.778ZM662.65,712.868L662.65,716.541L661.285,716.541L661.285,707.495L662.832,707.495C663.59,707.495 664.162,707.547 664.549,707.653C664.939,707.758 665.283,707.957 665.58,708.25C666.099,708.758 666.359,709.399 666.359,710.172C666.359,711 666.082,711.657 665.527,712.141C664.973,712.625 664.224,712.868 663.283,712.868L662.65,712.868ZM662.65,711.602L663.16,711.602C664.414,711.602 665.041,711.12 665.041,710.155C665.041,709.221 664.394,708.754 663.101,708.754L662.65,708.754L662.65,711.602ZM678.154,707.981L678.154,709.598C677.365,708.938 676.549,708.608 675.705,708.608C674.775,708.608 673.992,708.942 673.355,709.61C672.715,710.274 672.394,711.086 672.394,712.047C672.394,712.997 672.715,713.797 673.355,714.45C673.996,715.102 674.781,715.428 675.711,715.428C676.191,715.428 676.599,715.35 676.935,715.194C677.123,715.116 677.317,715.01 677.518,714.877C677.72,714.745 677.932,714.584 678.154,714.397L678.154,716.043C677.373,716.485 676.553,716.706 675.693,716.706C674.4,716.706 673.297,716.254 672.383,715.352C671.473,714.442 671.017,713.344 671.017,712.059C671.017,710.907 671.398,709.879 672.16,708.977C673.098,707.872 674.31,707.319 675.799,707.319C676.611,707.319 677.396,707.54 678.154,707.981ZM685.408,714.344L681.535,714.344L680.527,716.541L679.057,716.541L683.533,706.926L687.851,716.541L686.357,716.541L685.408,714.344ZM684.851,713.061L683.51,709.985L682.103,713.061L684.851,713.061ZM690.348,707.495L690.348,715.258L693.008,715.258L693.008,716.541L688.982,716.541L688.982,707.495L690.348,707.495ZM693.986,716.541L695.89,706.815L698.996,713.846L702.213,706.815L703.924,716.541L702.523,716.541L701.65,711.081L698.973,716.957L696.371,711.075L695.398,716.541L693.986,716.541ZM646.009,725.835L642.201,725.835L641.21,727.996L639.764,727.996L644.165,718.541L648.412,727.996L646.942,727.996L646.009,725.835ZM645.462,724.574L644.142,721.549L642.76,724.574L645.462,724.574ZM649.524,727.996L649.524,718.495L656.011,725.282L656.011,719.1L657.353,719.1L657.353,728.538L650.866,721.768L650.866,727.996L649.524,727.996ZM659.485,727.996L659.485,719.1L661.352,719.1C662.247,719.1 662.954,719.189 663.472,719.365C664.029,719.538 664.534,719.832 664.987,720.247C665.905,721.084 666.364,722.185 666.364,723.548C666.364,724.915 665.886,726.022 664.93,726.867C664.45,727.289 663.947,727.583 663.42,727.748C662.929,727.913 662.232,727.996 661.329,727.996L659.485,727.996ZM660.828,726.734L661.433,726.734C662.036,726.734 662.537,726.671 662.936,726.544C663.336,726.41 663.697,726.196 664.019,725.905C664.68,725.301 665.01,724.516 665.01,723.548C665.01,722.572 664.684,721.781 664.031,721.174C663.443,720.633 662.577,720.362 661.433,720.362L660.828,720.362L660.828,726.734ZM678.268,719.578L678.268,721.169C677.492,720.519 676.689,720.195 675.859,720.195C674.945,720.195 674.175,720.523 673.549,721.18C672.919,721.833 672.604,722.632 672.604,723.577C672.604,724.51 672.919,725.298 673.549,725.939C674.179,726.581 674.951,726.901 675.865,726.901C676.338,726.901 676.739,726.824 677.069,726.671C677.254,726.594 677.445,726.49 677.643,726.36C677.84,726.229 678.049,726.072 678.268,725.887L678.268,727.506C677.5,727.94 676.693,728.157 675.848,728.157C674.577,728.157 673.491,727.714 672.593,726.826C671.698,725.931 671.25,724.852 671.25,723.588C671.25,722.455 671.625,721.445 672.374,720.558C673.296,719.471 674.488,718.927 675.952,718.927C676.751,718.927 677.523,719.144 678.268,719.578ZM679.46,723.508C679.46,722.256 679.919,721.18 680.837,720.281C681.751,719.382 682.85,718.933 684.133,718.933C685.4,718.933 686.487,719.386 687.394,720.293C688.304,721.199 688.759,722.288 688.759,723.56C688.759,724.839 688.302,725.924 687.388,726.815C686.47,727.71 685.362,728.157 684.064,728.157C682.915,728.157 681.884,727.76 680.97,726.965C679.964,726.085 679.46,724.933 679.46,723.508ZM680.814,723.525C680.814,724.508 681.145,725.317 681.805,725.951C682.462,726.584 683.221,726.901 684.081,726.901C685.014,726.901 685.802,726.579 686.443,725.933C687.085,725.28 687.405,724.485 687.405,723.548C687.405,722.599 687.089,721.804 686.455,721.163C685.825,720.518 685.045,720.195 684.116,720.195C683.19,720.195 682.408,720.518 681.771,721.163C681.133,721.8 680.814,722.588 680.814,723.525ZM690.448,727.996L690.448,719.1L692.314,719.1C693.209,719.1 693.916,719.189 694.434,719.365C694.991,719.538 695.497,719.832 695.95,720.247C696.868,721.084 697.327,722.185 697.327,723.548C697.327,724.915 696.849,726.022 695.892,726.867C695.412,727.289 694.909,727.583 694.383,727.748C693.891,727.913 693.194,727.996 692.291,727.996L690.448,727.996ZM691.79,726.734L692.395,726.734C692.998,726.734 693.499,726.671 693.899,726.544C694.298,726.41 694.659,726.196 694.982,725.905C695.642,725.301 695.973,724.516 695.973,723.548C695.973,722.572 695.646,721.781 694.993,721.174C694.406,720.633 693.54,720.362 692.395,720.362L691.79,720.362L691.79,726.734ZM703.924,720.362L700.357,720.362L700.357,722.499L703.82,722.499L703.82,723.761L700.357,723.761L700.357,726.734L703.924,726.734L703.924,727.996L699.015,727.996L699.015,719.1L703.924,719.1L703.924,720.362Z" style="fill:white;"/>
            </g>
        </g>
    </g>
</svg>
